<svg width="16" height="17" viewBox="0 0 16 17" fill="currentColor" xmlns="http://www.w3.org/2000/svg">
<path fill-rule="evenodd" clip-rule="evenodd" d="M5.20996 7.66675H3.54329V9.33341H5.20996V7.66675ZM8.54329 7.66675H6.87663V9.33341H8.54329V7.66675ZM11.8766 7.66675H10.21V9.33341H11.8766V7.66675ZM13.5433 1.83341H12.71V0.166748H11.0433V1.83341H4.37663V0.166748H2.70996V1.83341H1.87663C0.951628 1.83341 0.218294 2.58341 0.218294 3.50008L0.209961 15.1667C0.209961 16.0834 0.951628 16.8334 1.87663 16.8334H13.5433C14.46 16.8334 15.21 16.0834 15.21 15.1667V3.50008C15.21 2.58341 14.46 1.83341 13.5433 1.83341ZM13.5433 15.1667H1.87663V6.00008H13.5433V15.1667Z"/>
</svg>
