<svg width="21" height="13" viewBox="0 0 21 13" fill="currentColor" xmlns="http://www.w3.org/2000/svg">
<path d="M10.4419 0.900146C3.88126 0.900146 0.441895 5.73383 0.441895 6.50015C0.441895 7.26667 3.88126 12.1001 10.4419 12.1001C17.0021 12.1001 20.4419 7.26667 20.4419 6.50015C20.4419 5.73383 17.0021 0.900146 10.4419 0.900146ZM10.4419 10.8079C7.98737 10.8079 5.99726 8.87931 5.99726 6.50015C5.99726 4.12099 7.98737 2.19236 10.4419 2.19236C12.8964 2.19236 14.8863 4.12099 14.8863 6.50015C14.8863 8.87931 12.8964 10.8079 10.4419 10.8079ZM12.664 6.50015C12.664 7.68962 11.6688 8.65425 10.4419 8.65425C9.21453 8.65425 8.21979 7.68962 8.21979 6.50015C8.21979 5.31067 9.21453 4.34625 10.4419 4.34625C11.1051 4.34625 10.0349 6.0532 10.4419 6.50015C10.7878 6.87973 12.664 5.95383 12.664 6.50015Z"/>
</svg>
