<svg width="59" height="46" viewBox="0 0 59 46" fill="none" xmlns="http://www.w3.org/2000/svg">
<g clip-path="url(#clip0)">
<g clip-path="url(#clip1)">
<path d="M7.67525 45.5C11.8144 45.5 15.1737 42.14 15.1737 38V30.5H7.67525C3.53608 30.5 0.176758 33.86 0.176758 38C0.176758 42.14 3.53608 45.5 7.67525 45.5Z" fill="#0ACF83"/>
<path d="M0.176758 23C0.176758 18.86 3.53608 15.5 7.67525 15.5H15.1737V30.5H7.67525C3.53608 30.5 0.176758 27.14 0.176758 23Z" fill="#A259FF"/>
<path d="M0.176758 8C0.176758 3.86 3.53608 0.5 7.67525 0.5H15.1737V15.5H7.67525C3.53608 15.5 0.176758 12.14 0.176758 8Z" fill="#F24E1E"/>
<path d="M15.1738 0.5H22.6723C26.8115 0.5 30.1708 3.86 30.1708 8C30.1708 12.14 26.8115 15.5 22.6723 15.5H15.1738V0.5Z" fill="#FF7262"/>
<path d="M30.1708 23C30.1708 27.14 26.8115 30.5 22.6723 30.5C18.5332 30.5 15.1738 27.14 15.1738 23C15.1738 18.86 18.5332 15.5 22.6723 15.5C26.8115 15.5 30.1708 18.86 30.1708 23Z" fill="#1ABCFE"/>
</g>
<path d="M35.9301 2.25619C38.0046 0.181702 41.368 0.181702 43.4425 2.25619L53.6866 12.5003L46.1742 20.0127L35.9301 9.76856C33.8556 7.69408 33.8556 4.33067 35.9301 2.25619Z" fill="#1ABCFE"/>
<path d="M56.4176 2.25619C54.3431 0.181702 50.9797 0.181703 48.9052 2.25619L38.661 12.5003L46.1734 20.0127L56.4176 9.76857C58.492 7.69408 58.492 4.33067 56.4176 2.25619Z" fill="#FF5B84"/>
<path d="M46.1738 20.0123L38.6614 12.4999L46.1738 4.98755L53.6861 12.4999L46.1738 20.0123Z" fill="#FF3366"/>
</g>
<defs>
<clipPath id="clip0">
<rect width="58" height="45" fill="white" transform="translate(0.173828 0.5)"/>
</clipPath>
<clipPath id="clip1">
<rect width="30" height="45" fill="white" transform="translate(0.173828 0.5)"/>
</clipPath>
</defs>
</svg>
