<svg width="21" height="21" viewBox="0 0 21 21" fill="currentColor" xmlns="http://www.w3.org/2000/svg">
<path d="M20.5252 19.2282L15.8012 14.5042C17.0684 13.0474 17.8356 11.1465 17.8356 9.069C17.8356 4.49583 14.1159 0.780399 9.54703 0.780399C4.97386 0.780399 1.25843 4.50014 1.25843 9.069C1.25843 13.6379 4.97817 17.3576 9.54703 17.3576C11.6246 17.3576 13.5254 16.5904 14.9822 15.3232L19.7063 20.0472C19.8183 20.1593 19.9692 20.2196 20.1157 20.2196C20.2623 20.2196 20.4132 20.1636 20.5252 20.0472C20.7494 19.8231 20.7494 19.4524 20.5252 19.2282ZM2.41788 9.069C2.41788 5.13806 5.61608 1.94417 9.54272 1.94417C13.4737 1.94417 16.6676 5.14237 16.6676 9.069C16.6676 12.9956 13.4737 16.1981 9.54272 16.1981C5.61608 16.1981 2.41788 12.9999 2.41788 9.069Z"/>
<path fill-rule="evenodd" clip-rule="evenodd" d="M0.978027 9.069C0.978027 4.34538 4.8189 0.5 9.54703 0.5C14.2707 0.5 18.116 4.34088 18.116 9.069C18.116 11.123 17.3904 13.0102 16.1816 14.4881L20.7235 19.03C21.0565 19.363 21.0571 19.9098 20.7254 20.2436C20.5565 20.4179 20.3315 20.5 20.1157 20.5C19.8944 20.5 19.6724 20.4098 19.508 20.2455L14.9661 15.7036C13.4882 16.9124 11.601 17.638 9.54703 17.638C4.82331 17.638 0.978027 13.7927 0.978027 9.069ZM9.54703 1.0608C5.12881 1.0608 1.53883 4.65491 1.53883 9.069C1.53883 13.483 5.13303 17.0772 9.54703 17.0772C11.5542 17.0772 13.3903 16.3362 14.7982 15.1116L14.9956 14.9399L19.9045 19.8489C19.9643 19.9087 20.044 19.9392 20.1157 19.9392C20.1923 19.9392 20.2682 19.9099 20.3232 19.8527L20.3269 19.8489C20.4415 19.7343 20.4416 19.5411 20.3269 19.4265L15.418 14.5175L15.5896 14.3202C16.8143 12.9123 17.5552 11.0762 17.5552 9.069C17.5552 4.65079 13.9611 1.0608 9.54703 1.0608ZM9.54272 2.22456C5.77083 2.22456 2.69828 5.29303 2.69828 9.069C2.69828 12.8452 5.77105 15.9177 9.54272 15.9177C13.3185 15.9177 16.3872 12.8411 16.3872 9.069C16.3872 5.29712 13.3187 2.22456 9.54272 2.22456ZM2.13748 9.069C2.13748 4.98309 5.46133 1.66377 9.54272 1.66377C13.6286 1.66377 16.9479 4.98762 16.9479 9.069C16.9479 13.1502 13.6289 16.4785 9.54272 16.4785C5.46111 16.4785 2.13748 13.1547 2.13748 9.069Z"/>
</svg>
